<svg xmlns="http://www.w3.org/2000/svg" width="40" height="54" viewBox="0 0 40 54" fill="none">
  <!-- Shadow -->
  <ellipse cx="20" cy="52" rx="9" ry="2" fill="rgba(0,0,0,0.18)"/>
  <!-- Glow -->
  <ellipse cx="20" cy="50" rx="12" ry="3" fill="#F43F5E" fill-opacity="0.15"/>
  <!-- Pin body -->
  <path d="M20 0C9 0 0 9 0 20c0 14 18.5 32 19.335 32.793a1 1 0 0 0 1.33 0C21.5 52 40 34 40 20 40 9 31 0 20 0Z" fill="#F43F5E"/>
  <path d="M20 0C9 0 0 9 0 20c0 14 18.5 32 19.335 32.793a1 1 0 0 0 1.33 0C21.5 52 40 34 40 20 40 9 31 0 20 0Z" fill="url(#grad_red_m)"/>
  <!-- Inner circle -->
  <circle cx="20" cy="19" r="12" fill="white" fill-opacity="0.95"/>
  <!-- Mosque icon -->
  <g transform="translate(11, 11)" fill="#F43F5E">
    <!-- Main dome -->
    <path d="M9 2C6.5 2 4 5.5 4 8h10c0-2.5-2.5-6-5-6Z"/>
    <!-- Crescent on top -->
    <path d="M9.8 1.2a1.2 1.2 0 1 1-1.6 1.8 1.5 1.5 0 0 0 1.6-1.8Z" fill-opacity="0.7"/>
    <!-- Building body -->
    <rect x="3" y="8" width="12" height="6" rx="0.5"/>
    <!-- Door -->
    <rect x="7" y="10" width="4" height="4" rx="2" fill="white" fill-opacity="0.9"/>
    <!-- Left minaret -->
    <rect x="0.5" y="5" width="2" height="9" rx="1"/>
    <circle cx="1.5" cy="4" r="1.2"/>
    <!-- Right minaret -->
    <rect x="15.5" y="5" width="2" height="9" rx="1"/>
    <circle cx="16.5" cy="4" r="1.2"/>
    <!-- Base -->
    <rect x="0" y="14" width="18" height="2" rx="0.5" fill-opacity="0.5"/>
  </g>
  <defs>
    <linearGradient id="grad_red_m" x1="0" y1="0" x2="40" y2="54" gradientUnits="userSpaceOnUse">
      <stop stop-color="#FB7185" stop-opacity="0.4"/>
      <stop offset="1" stop-color="#E11D48" stop-opacity="0.3"/>
    </linearGradient>
  </defs>
</svg>
