<svg xmlns="http://www.w3.org/2000/svg" width="36" height="48" viewBox="0 0 36 48" fill="none">
  <!-- Shadow -->
  <ellipse cx="18" cy="46" rx="8" ry="2" fill="rgba(0,0,0,0.15)"/>
  <!-- Pin body -->
  <path d="M18 0C8.059 0 0 8.059 0 18c0 12.627 16.5 28.5 17.335 29.293a1 1 0 0 0 1.33 0C19.5 46.5 36 30.627 36 18 36 8.059 27.941 0 18 0Z" fill="#059669"/>
  <path d="M18 0C8.059 0 0 8.059 0 18c0 12.627 16.5 28.5 17.335 29.293a1 1 0 0 0 1.33 0C19.5 46.5 36 30.627 36 18 36 8.059 27.941 0 18 0Z" fill="url(#grad_green)"/>
  <!-- Inner circle -->
  <circle cx="18" cy="17" r="11" fill="white" fill-opacity="0.95"/>
  <!-- Mosque icon -->
  <g transform="translate(9, 9)" fill="#059669">
    <!-- Main dome -->
    <path d="M9 2C6.5 2 4 5.5 4 8h10c0-2.5-2.5-6-5-6Z"/>
    <!-- Crescent on top -->
    <path d="M9.8 1.2a1.2 1.2 0 1 1-1.6 1.8 1.5 1.5 0 0 0 1.6-1.8Z" fill-opacity="0.7"/>
    <!-- Building body -->
    <rect x="3" y="8" width="12" height="6" rx="0.5"/>
    <!-- Door -->
    <rect x="7" y="10" width="4" height="4" rx="2" fill="white" fill-opacity="0.9"/>
    <!-- Left minaret -->
    <rect x="0.5" y="5" width="2" height="9" rx="1"/>
    <circle cx="1.5" cy="4" r="1.2"/>
    <!-- Right minaret -->
    <rect x="15.5" y="5" width="2" height="9" rx="1"/>
    <circle cx="16.5" cy="4" r="1.2"/>
    <!-- Base -->
    <rect x="0" y="14" width="18" height="2" rx="0.5" fill-opacity="0.5"/>
  </g>
  <defs>
    <linearGradient id="grad_green" x1="0" y1="0" x2="36" y2="48" gradientUnits="userSpaceOnUse">
      <stop stop-color="#34D399" stop-opacity="0.4"/>
      <stop offset="1" stop-color="#047857" stop-opacity="0.3"/>
    </linearGradient>
  </defs>
</svg>
