<svg xmlns="http://www.w3.org/2000/svg" width="40" height="54" viewBox="0 0 40 54" fill="none">
  <!-- Shadow -->
  <ellipse cx="20" cy="52" rx="9" ry="2" fill="rgba(0,0,0,0.18)"/>
  <!-- Glow -->
  <ellipse cx="20" cy="50" rx="12" ry="3" fill="#F43F5E" fill-opacity="0.15"/>
  <!-- Pin body -->
  <path d="M20 0C9 0 0 9 0 20c0 14 18.5 32 19.335 32.793a1 1 0 0 0 1.33 0C21.5 52 40 34 40 20 40 9 31 0 20 0Z" fill="#F43F5E"/>
  <path d="M20 0C9 0 0 9 0 20c0 14 18.5 32 19.335 32.793a1 1 0 0 0 1.33 0C21.5 52 40 34 40 20 40 9 31 0 20 0Z" fill="url(#grad_red)"/>
  <!-- Inner circle -->
  <circle cx="20" cy="19" r="12" fill="white" fill-opacity="0.95"/>
  <!-- Toilet icon -->
  <g transform="translate(12, 11)" fill="#F43F5E">
    <circle cx="4" cy="2" r="2"/>
    <path d="M1.5 6.5C1.5 5.67 2.17 5 3 5h2c.83 0 1.5.67 1.5 1.5V10h-1v4.5a.5.5 0 0 1-.5.5h-1a.5.5 0 0 1-.5-.5V10h-1V6.5Z"/>
    <path d="M1 7h6l-.8 4H1.8L1 7Z" fill-opacity="0.3"/>
    <rect x="7.5" y="4" width="1" height="12" rx="0.5" fill-opacity="0.2"/>
    <circle cx="12" cy="2" r="2"/>
    <path d="M9.5 6.5C9.5 5.67 10.17 5 11 5h2c.83 0 1.5.67 1.5 1.5V10h-1v4.5a.5.5 0 0 1-.5.5h-1a.5.5 0 0 1-.5-.5V10h-1V6.5Z"/>
  </g>
  <defs>
    <linearGradient id="grad_red" x1="0" y1="0" x2="40" y2="54" gradientUnits="userSpaceOnUse">
      <stop stop-color="#FB7185" stop-opacity="0.4"/>
      <stop offset="1" stop-color="#E11D48" stop-opacity="0.3"/>
    </linearGradient>
  </defs>
</svg>
