<svg xmlns="http://www.w3.org/2000/svg" width="36" height="48" viewBox="0 0 36 48" fill="none">
  <!-- Shadow -->
  <ellipse cx="18" cy="46" rx="8" ry="2" fill="rgba(0,0,0,0.15)"/>
  <!-- Pin body -->
  <path d="M18 0C8.059 0 0 8.059 0 18c0 12.627 16.5 28.5 17.335 29.293a1 1 0 0 0 1.33 0C19.5 46.5 36 30.627 36 18 36 8.059 27.941 0 18 0Z" fill="#0EA5E9"/>
  <path d="M18 0C8.059 0 0 8.059 0 18c0 12.627 16.5 28.5 17.335 29.293a1 1 0 0 0 1.33 0C19.5 46.5 36 30.627 36 18 36 8.059 27.941 0 18 0Z" fill="url(#grad_blue)"/>
  <!-- Inner circle -->
  <circle cx="18" cy="17" r="11" fill="white" fill-opacity="0.95"/>
  <!-- Toilet icon -->
  <g transform="translate(10, 9)" fill="#0EA5E9">
    <!-- Person left (female) -->
    <circle cx="4" cy="2" r="2"/>
    <path d="M1.5 6.5C1.5 5.67 2.17 5 3 5h2c.83 0 1.5.67 1.5 1.5V10h-1v4.5a.5.5 0 0 1-.5.5h-1a.5.5 0 0 1-.5-.5V10h-1V6.5Z"/>
    <path d="M1 7h6l-.8 4H1.8L1 7Z" fill-opacity="0.3"/>
    <!-- Divider -->
    <rect x="7.5" y="4" width="1" height="12" rx="0.5" fill-opacity="0.2"/>
    <!-- Person right (male) -->
    <circle cx="12" cy="2" r="2"/>
    <path d="M9.5 6.5C9.5 5.67 10.17 5 11 5h2c.83 0 1.5.67 1.5 1.5V10h-1v4.5a.5.5 0 0 1-.5.5h-1a.5.5 0 0 1-.5-.5V10h-1V6.5Z"/>
  </g>
  <defs>
    <linearGradient id="grad_blue" x1="0" y1="0" x2="36" y2="48" gradientUnits="userSpaceOnUse">
      <stop stop-color="#38BDF8" stop-opacity="0.4"/>
      <stop offset="1" stop-color="#0284C7" stop-opacity="0.3"/>
    </linearGradient>
  </defs>
</svg>
